<svg xmlns="http://www.w3.org/2000/svg" xmlns:xlink="http://www.w3.org/1999/xlink" fill="none" version="1.1" width="35.73192596435547" height="35.73192596435547" viewBox="0 0 35.73192596435547 35.73192596435547"><defs><clipPath id="master_svg0_9_301"><rect x="0" y="0" width="35.73192596435547" height="35.73192596435547" rx="0"/></clipPath></defs><g clipPath="url(#master_svg0_9_301)"><g></g><g><path d="M10.421849369354248,14.888732571029664C10.421849369354248,14.888732571029664,29.776629369354247,14.888732571029664,29.776629369354247,14.888732571029664C30.171529369354246,14.888732571029664,30.55022936935425,15.045632571029664,30.829429369354248,15.324832571029663C31.108629369354247,15.604032571029663,31.265429369354248,15.982732571029663,31.265429369354248,16.37753257102966C31.265429369354248,16.37753257102966,31.265429369354248,31.265832571029662,31.265429369354248,31.265832571029662C31.265429369354248,31.660732571029662,31.108629369354247,32.039432571029664,30.829429369354248,32.31863257102967C30.55022936935425,32.59783257102966,30.171529369354246,32.75473257102966,29.776629369354247,32.75473257102966C29.776629369354247,32.75473257102966,5.955359369354248,32.75473257102966,5.955359369354248,32.75473257102966C5.560499369354249,32.75473257102966,5.181807369354248,32.59783257102966,4.902597369354248,32.31863257102967C4.623387369354248,32.039432571029664,4.466529369354249,31.660732571029662,4.466529369354248,31.265832571029662C4.466529369354248,31.265832571029662,4.466529369354248,16.37753257102966,4.466529369354248,16.37753257102966C4.466529369354248,15.982732571029663,4.623387369354248,15.604032571029663,4.902597369354248,15.324832571029663C5.181807369354248,15.045632571029664,5.560499369354249,14.888732571029664,5.955359369354248,14.888732571029664C5.955359369354248,14.888732571029664,7.444189369354248,14.888732571029664,7.444189369354248,14.888732571029664C7.444189369354248,14.888732571029664,7.444189369354248,13.399932571029662,7.444189369354248,13.399932571029662C7.4433393693542484,11.051582571029662,8.235619369354248,8.771802571029664,9.692609369354248,6.930102571029662C11.14958936935425,5.088412571029663,13.185869369354249,3.792759571029663,15.471329369354248,3.253181571029663C17.75682936935425,2.713602571029663,20.157629369354247,2.961722671029663,22.28442936935425,3.957321571029663C24.41122936935425,4.952922571029664,26.139529369354246,6.637642571029663,27.189029369354248,8.738382571029664C27.189029369354248,8.738382571029664,24.52552936935425,10.069402571029663,24.52552936935425,10.069402571029663C23.775929369354248,8.568682571029663,22.541329369354248,7.365162571029663,21.022029369354247,6.653942571029663C19.50272936935425,5.942732571029663,17.78782936935425,5.765522571029663,16.15512936935425,6.151062571029663C14.522529369354247,6.536602571029663,13.067989369354247,7.462272571029663,12.027339369354248,8.778002571029663C10.986699369354248,10.093732571029662,10.420959369354248,11.722382571029662,10.421849369354248,13.399932571029662C10.421849369354248,13.399932571029662,10.421849369354248,14.888732571029664,10.421849369354248,14.888732571029664C10.421849369354248,14.888732571029664,10.421849369354248,14.888732571029664,10.421849369354248,14.888732571029664ZM14.888329369354247,22.332932571029662C14.888329369354247,22.332932571029662,14.888329369354247,25.310532571029665,14.888329369354247,25.310532571029665C14.888329369354247,25.310532571029665,20.843629369354247,25.310532571029665,20.843629369354247,25.310532571029665C20.843629369354247,25.310532571029665,20.843629369354247,22.332932571029662,20.843629369354247,22.332932571029662C20.843629369354247,22.332932571029662,14.888329369354247,22.332932571029662,14.888329369354247,22.332932571029662C14.888329369354247,22.332932571029662,14.888329369354247,22.332932571029662,14.888329369354247,22.332932571029662Z" fill="#000000" fillOpacity="1"/></g></g></svg>
